PathFileType	4	(X/Y/Z)	/Users/itak/Documents/Research/Walk-IL/dataset/trc/00101_00007.trc
DataRate	CameraRate	NumFrames	NumMarkers	Units	OrigDataRate	OrigDataStartFrame	OrigNumFrames
100.000000	100.000000	4	53	mm	100.000000	290	580
Frame#	Time	RPSI			LPSI			L3			STRN			T10			C7			CLAV			RBAK			LBAK			LSHO			LUPA			LAEL			LAOL			LWTS			LWPS			LFRA			LIFD			LHPS			LHTS			RSHO			RUPA			RAEL			RAOL			RWTS			RWPS			RFRA			RIFD			RHTS			RHPS			RBHD			LFHD			RFHD			LBHD			LHIP			RHIP			RASI			LASI			LKNE			LTHI			LANK			LTIP			LTOE			LMT1			LMT5			LHEE			RKNE			RTHI			RANK			RTIP			RTOE			RMT1			RMT5			RHEE			
		X1	Y1	Z1	X2	Y2	Z2	X3	Y3	Z3	X4	Y4	Z4	X5	Y5	Z5	X6	Y6	Z6	X7	Y7	Z7	X8	Y8	Z8	X9	Y9	Z9	X10	Y10	Z10	X11	Y11	Z11	X12	Y12	Z12	X13	Y13	Z13	X14	Y14	Z14	X15	Y15	Z15	X16	Y16	Z16	X17	Y17	Z17	X18	Y18	Z18	X19	Y19	Z19	X20	Y20	Z20	X21	Y21	Z21	X22	Y22	Z22	X23	Y23	Z23	X24	Y24	Z24	X25	Y25	Z25	X26	Y26	Z26	X27	Y27	Z27	X28	Y28	Z28	X29	Y29	Z29	X30	Y30	Z30	X31	Y31	Z31	X32	Y32	Z32	X33	Y33	Z33	X34	Y34	Z34	X35	Y35	Z35	X36	Y36	Z36	X37	Y37	Z37	X38	Y38	Z38	X39	Y39	Z39	X40	Y40	Z40	X41	Y41	Z41	X42	Y42	Z42	X43	Y43	Z43	X44	Y44	Z44	X45	Y45	Z45	X46	Y46	Z46	X47	Y47	Z47	X48	Y48	Z48	X49	Y49	Z49	X50	Y50	Z50	X51	Y51	Z51	X52	Y52	Z52	X53	Y53	Z53	

291	2.9	-831.9596557617188	1120.599609375	-232.6379241943359	-840.74365234375	1118.115478515625	-367.9932861328125	-843.8784790039062	1158.108642578125	-302.6237182617188	-623.0005493164062	1359.841186523438	-317.6843872070312	-875.4326171875	1311.643920898438	-303.3029479980469	-833.1845092773438	1604.050170898438	-323.6019287109375	-655.66650390625	1495.597534179688	-322.4469299316406	-887.0848999023438	1421.582153320312	-229.365966796875	-847.1395874023438	1583.563842773438	-424.8155822753906	-764.2329711914062	1566.511474609375	-497.6217651367188	-792.2738037109375	1433.146484375	-562.495361328125	-791.4100341796875	1213.767944335938	-579.8977661132812	-851.6802978515625	1205.137084960938	-516.5410766601562	-693.5535278320312	955.8660888671875	-538.850341796875	-777.3018188476562	930.8701782226562	-556.5691528320312	-778.6954345703125	1097.228271484375	-582.121826171875	-683.1686401367188	763.84814453125	-508.6239929199219	-749.549072265625	855.1929931640625	-557.0892333984375	-680.7533569335938	865.4584350585938	-547.2186889648438	-770.7906494140625	1587.539428710938	-145.49169921875	-780.9467163085938	1515.086059570312	-78.86131286621094	-765.4454956054688	1223.657470703125	-32.99127197265625	-781.3524169921875	1213.69677734375	-128.1548919677734	-601.2606201171875	994.8760986328125	-40.67022323608398	-670.7774658203125	973.919921875	-2.04675817489624	-733.9461669921875	1154.476196289062	-14.09002780914307	-561.1837768554688	801.6234130859375	-44.03271102905273	-561.9811401367188	889.4354858398438	-29.28099060058594	-625.3984985351562	879.0010986328125	7.497622013092041	-791.9846801757812	1772.156982421875	-248.7755432128906	-632.8804321289062	1840.4248046875	-384.4527587890625	-630.2675170898438	1844.168701171875	-254.466064453125	-802.1823120117188	1771.818481445312	-384.3229370117188	-745.7910766601562	1031.312255859375	-478.6698303222656	-698.51318359375	1032.594604492188	-116.8623046875	-621.6158447265625	1107.000366210938	-175.4104309082031	-641.7052612304688	1102.0517578125	-439.6199951171875	-547.4931030273438	550.83837890625	-456.8098449707031	-620.3441772460938	690.1436767578125	-479.3595275878906	-914.666259765625	165.1277923583984	-457.4285888671875	-759.8714599609375	375.6235656738281	-475.9789428710938	-720.7886962890625	47.12063598632812	-440.4552307128906	-778.8535766601562	80.09020233154297	-393.7546691894531	-823.088623046875	92.78411102294922	-500.6113891601562	-958.3699951171875	200.9060821533203	-384.6332702636719	-676.4176025390625	539.006103515625	-174.7104949951172	-667.4020385742188	819.0401611328125	-131.8474884033203	-761.8832397460938	27.13669586181641	-224.3032379150391	-696.581787109375	403.3048706054688	-170.5396575927734	-532.0587768554688	44.40761184692383	-286.9474792480469	-594.615234375	41.57740783691406	-326.5863952636719	-627.4403686523438	37.52324295043945	-208.0771942138672	-821.0792236328125	32.80612564086914	-269.9245910644531	
292	2.91	-824.7139282226562	1120.778930664062	-232.6641998291016	-833.1679077148438	1118.529663085938	-368.0088195800781	-836.5487060546875	1158.375	-302.4844970703125	-615.3004150390625	1360.08056640625	-317.2140808105469	-867.35107421875	1311.917724609375	-302.2919921875	-825.3414306640625	1604.3525390625	-322.72412109375	-647.91845703125	1495.842407226562	-322.1940002441406	-878.9910888671875	1422.039184570312	-228.1373901367188	-839.7156982421875	1583.807739257812	-423.8356018066406	-757.1995849609375	1566.678833007812	-497.0755615234375	-786.0977783203125	1433.379028320312	-561.7313232421875	-786.9270629882812	1214.05126953125	-578.8628540039062	-846.7788696289062	1205.887329101562	-515.0487060546875	-690.4290771484375	955.5671997070312	-538.322265625	-774.447021484375	931.0698852539062	-555.3698120117188	-774.9877319335938	1097.420166015625	-581.1049194335938	-681.010009765625	763.5249633789062	-507.7996215820312	-747.2325439453125	855.2051391601562	-555.9594116210938	-678.270263671875	865.036376953125	-546.6212158203125	-762.3347778320312	1588.1298828125	-144.9115905761719	-772.0206298828125	1515.775024414062	-78.06788635253906	-754.0285034179688	1224.433837890625	-31.54244422912598	-770.5112915039062	1214.07421875	-126.6614303588867	-586.8265991210938	997.899658203125	-39.59199523925781	-655.867431640625	975.9511108398438	-0.6632379293441772	-721.5960693359375	1155.622680664062	-12.67284965515137	-543.8861083984375	805.3074340820312	-42.76051330566406	-545.9722290039062	893.0631103515625	-28.19760894775391	-609.115966796875	881.7200317382812	8.840655326843262	-783.5971069335938	1772.778442382812	-248.4658203125	-624.3470458984375	1840.24560546875	-384.3381958007812	-621.5711059570312	1844.138305664062	-254.3712158203125	-793.9130859375	1772.32763671875	-384.0047607421875	-737.8193359375	1031.9765625	-478.4405212402344	-691.9071044921875	1032.416625976562	-116.4601821899414	-614.6145629882812	1106.914184570312	-174.5454864501953	-633.8753051757812	1102.677734375	-438.8077392578125	-534.05419921875	553.9721069335938	-455.6394348144531	-608.5829467773438	692.2532958984375	-478.985107421875	-887.8399658203125	155.9419860839844	-457.0719604492188	-740.9088134765625	372.0615844726562	-475.3533935546875	-688.5263671875	47.12865829467773	-439.9120178222656	-748.544677734375	77.19083404541016	-393.3478088378906	-792.9171752929688	88.08745574951172	-500.1867980957031	-933.55126953125	189.5564422607422	-384.2828674316406	-673.4339599609375	538.6983032226562	-174.4123229980469	-662.218017578125	818.7242431640625	-131.6217651367188	-761.9155883789062	27.26690292358398	-224.4518890380859	-694.5896606445312	403.1583862304688	-170.4224090576172	-532.096923828125	44.73152542114258	-286.5159606933594	-594.5369262695312	41.84591293334961	-326.4186706542969	-627.454345703125	37.45677185058594	-207.9670715332031	-821.1235961914062	33.06425476074219	-270.0693969726562	
293	2.92	-817.4837646484375	1120.907958984375	-232.7335510253906	-825.6045532226562	1118.884033203125	-368.0697326660156	-829.2652587890625	1158.581665039062	-302.3964233398438	-607.6175537109375	1360.23583984375	-316.7647705078125	-859.2175903320312	1312.114501953125	-301.2548828125	-817.513427734375	1604.578735351562	-321.8758544921875	-640.18359375	1496.003662109375	-321.9523315429688	-870.918701171875	1422.42626953125	-226.9476165771484	-832.2876586914062	1583.973999023438	-422.8849487304688	-750.1591796875	1566.776489257812	-496.5422058105469	-779.842529296875	1433.539794921875	-560.9901733398438	-782.2076416015625	1214.279907226562	-577.85107421875	-841.7051391601562	1206.553344726562	-513.650634765625	-687.1922607421875	955.1724853515625	-537.755126953125	-771.4555053710938	931.2320556640625	-554.275390625	-771.052978515625	1097.570556640625	-580.119140625	-678.887939453125	763.1024169921875	-507.0461120605469	-744.8171997070312	855.1744384765625	-554.9403076171875	-675.7161254882812	864.5256958007812	-546.0258178710938	-753.899658203125	1588.630981445312	-144.3484802246094	-763.1387329101562	1516.374877929688	-77.30554962158203	-742.8421020507812	1225.1171875	-30.22074699401855	-759.805419921875	1214.38525390625	-125.2919235229492	-572.536865234375	1000.945495605469	-38.65272903442383	-641.1155395507812	977.9453125	0.5214523673057556	-709.4754028320312	1156.677490234375	-11.39681053161621	-526.6804809570312	809.0430297851562	-41.75570678710938	-530.0845947265625	896.7491455078125	-27.31179618835449	-592.97314453125	884.43896484375	9.938403129577637	-775.22216796875	1773.297485351562	-248.1758575439453	-615.8727416992188	1840.013427734375	-384.2848815917969	-612.9271850585938	1844.084350585938	-254.3349151611328	-785.6785278320312	1772.699584960938	-383.7032775878906	-729.926025390625	1032.547485351562	-478.2193603515625	-685.3434448242188	1032.21826171875	-116.1422958374023	-607.6287231445312	1106.7685546875	-173.7227478027344	-626.0557861328125	1103.209594726562	-438.0432739257812	-521.1495971679688	556.9171752929688	-454.5028991699219	-597.2081298828125	694.2218627929688	-478.6364135742188	-860.4293212890625	146.3565521240234	-456.5882263183594	-721.8795166015625	368.0037841796875	-474.8316955566406	-656.00634765625	47.24252319335938	-439.2733764648438	-717.8250732421875	74.26885223388672	-392.8074645996094	-762.3892822265625	83.15962982177734	-499.6081848144531	-907.9828491210938	177.7858123779297	-383.8394165039062	-670.34912109375	538.3926391601562	-174.1947174072266	-656.9921264648438	818.3825073242188	-131.4524230957031	-761.9414672851562	27.41792297363281	-224.6189575195312	-692.47998046875	403.017822265625	-170.3604888916016	-532.1473388671875	45.12455749511719	-286.0480346679688	-594.4679565429688	42.10837936401367	-326.2389221191406	-627.4691162109375	37.37913513183594	-207.8620910644531	-821.1724853515625	33.3524055480957	-270.2376403808594	
294	2.93	-810.2579956054688	1120.983032226562	-232.8482818603516	-818.0563354492188	1119.169799804688	-368.1779479980469	-822.0248413085938	1158.728759765625	-302.3628234863281	-599.9501953125	1360.302490234375	-316.3401489257812	-851.0467529296875	1312.230590820312	-300.215087890625	-809.6935424804688	1604.7236328125	-321.0622863769531	-632.4573364257812	1496.07763671875	-321.7215881347656	-862.87158203125	1422.734497070312	-225.8125457763672	-824.842529296875	1584.06005859375	-421.9693603515625	-743.0946044921875	1566.802978515625	-496.0244750976562	-773.502685546875	1433.628051757812	-560.2772216796875	-777.2648315429688	1214.445068359375	-576.8690185546875	-836.4633178710938	1207.132080078125	-512.3374633789062	-683.8419799804688	954.6812744140625	-537.1536254882812	-768.3336181640625	931.3497314453125	-553.2650146484375	-766.90673828125	1097.671020507812	-579.1627807617188	-676.7982177734375	762.5856323242188	-506.3686218261719	-742.2979736328125	855.0975952148438	-554.0205688476562	-673.0836181640625	863.9305419921875	-545.4409790039062	-745.4885864257812	1589.033081054688	-143.8052368164062	-754.3060302734375	1516.871215820312	-76.58053588867188	-731.8819580078125	1225.692138671875	-29.02222633361816	-749.2351684570312	1214.616577148438	-124.038932800293	-558.4086303710938	1003.986389160156	-37.8599739074707	-626.5308837890625	979.887451171875	1.511067390441895	-697.5765380859375	1157.627197265625	-10.253586769104	-509.5957641601562	812.8169555664062	-41.01540756225586	-514.343505859375	900.4671630859375	-26.62008476257324	-576.9818725585938	887.1422729492188	10.79990005493164	-766.8548583984375	1773.701171875	-247.9043273925781	-607.463134765625	1839.73193359375	-384.2932434082031	-604.3401489257812	1844.001586914062	-254.3552703857422	-777.4791870117188	1772.928588867188	-383.41552734375	-722.1121215820312	1033.009033203125	-478.0046081542969	-678.80908203125	1031.99951171875	-115.9031066894531	-600.6488647460938	1106.560546875	-172.9471435546875	-618.2490844726562	1103.637329101562	-437.3362426757812	-508.7723083496094	559.6372680664062	-453.4149475097656	-586.2291259765625	696.0108642578125	-478.323974609375	-832.483154296875	136.5481872558594	-455.9947204589844	-702.8070678710938	363.5458374023438	-474.3909606933594	-623.371337890625	47.53631210327148	-438.5795288085938	-686.759033203125	71.45256805419922	-392.1640625	-731.566650390625	78.15655517578125	-498.9136657714844	-881.6901245117188	165.7606658935547	-383.3106994628906	-667.1505126953125	538.0878295898438	-174.0487213134766	-651.7139892578125	818.0192260742188	-131.3414306640625	-761.9622192382812	27.58172225952148	-224.7919464111328	-690.2452392578125	402.8779602050781	-170.3430938720703	-532.2008056640625	45.57839584350586	-285.5562133789062	-594.4188842773438	42.36530303955078	-326.0436706542969	-627.4849853515625	37.29184341430664	-207.7588653564453	-821.2182006835938	33.65817260742188	-270.4211120605469	
